<svg width="48" height="55" viewBox="0 0 48 55" fill="none" xmlns="http://www.w3.org/2000/svg">
<path d="M40.1317 28.9775C40.1062 24.4846 42.2231 21.0935 46.5079 18.596C44.1105 15.3029 40.4888 13.491 35.7067 13.136C31.1796 12.7932 26.2316 15.6701 24.4208 15.6701C22.5079 15.6701 18.1211 13.2584 14.678 13.2584C7.56213 13.3686 -3.71933e-05 18.7062 -3.71933e-05 29.5651C-3.71933e-05 32.7726 0.612078 36.0862 1.83631 39.5059C3.46861 43.9988 9.36022 55.0169 15.5069 54.8332C18.7205 54.7598 20.9904 52.6419 25.1732 52.6419C29.2284 52.6419 31.3326 54.8332 34.916 54.8332C41.1137 54.7475 46.4442 44.7334 48 40.2282C39.6854 36.4698 40.1317 29.2101 40.1317 28.9775ZM32.9139 8.87566C36.3953 4.90916 36.0765 1.29768 35.9745 -5.72205e-06C32.9011 0.171386 29.3432 2.00773 27.3156 4.27256C25.0839 6.69653 23.7704 9.69589 24.051 13.0748C27.3793 13.3196 30.4144 11.6791 32.9139 8.87566Z" fill="#080D13"/>
</svg>
