<svg width="105" height="29" viewBox="0 0 105 29" fill="none" xmlns="http://www.w3.org/2000/svg">
<path d="M52.982 20.268H48.266L47.51 22.5H44.288L48.86 9.864H52.424L56.996 22.5H53.738L52.982 20.268ZM52.19 17.892L50.624 13.266L49.076 17.892H52.19Z" fill="white"/>
<path d="M63.2655 13.878C63.5655 13.41 63.9795 13.032 64.5075 12.744C65.0355 12.456 65.6535 12.312 66.3615 12.312C67.1895 12.312 67.9395 12.522 68.6115 12.942C69.2835 13.362 69.8115 13.962 70.1955 14.742C70.5915 15.522 70.7895 16.428 70.7895 17.46C70.7895 18.492 70.5915 19.404 70.1955 20.196C69.8115 20.976 69.2835 21.582 68.6115 22.014C67.9395 22.434 67.1895 22.644 66.3615 22.644C65.6655 22.644 65.0475 22.5 64.5075 22.212C63.9795 21.924 63.5655 21.552 63.2655 21.096V27.288H60.1875V12.456H63.2655V13.878ZM67.6575 17.46C67.6575 16.692 67.4415 16.092 67.0095 15.66C66.5895 15.216 66.0675 14.994 65.4435 14.994C64.8315 14.994 64.3095 15.216 63.8775 15.66C63.4575 16.104 63.2475 16.71 63.2475 17.478C63.2475 18.246 63.4575 18.852 63.8775 19.296C64.3095 19.74 64.8315 19.962 65.4435 19.962C66.0555 19.962 66.5775 19.74 67.0095 19.296C67.4415 18.84 67.6575 18.228 67.6575 17.46Z" fill="white"/>
<path d="M77.2823 13.878C77.5823 13.41 77.9963 13.032 78.5243 12.744C79.0523 12.456 79.6703 12.312 80.3783 12.312C81.2063 12.312 81.9563 12.522 82.6283 12.942C83.3003 13.362 83.8283 13.962 84.2123 14.742C84.6083 15.522 84.8063 16.428 84.8063 17.46C84.8063 18.492 84.6083 19.404 84.2123 20.196C83.8283 20.976 83.3003 21.582 82.6283 22.014C81.9563 22.434 81.2063 22.644 80.3783 22.644C79.6823 22.644 79.0643 22.5 78.5243 22.212C77.9963 21.924 77.5823 21.552 77.2823 21.096V27.288H74.2043V12.456H77.2823V13.878ZM81.6743 17.46C81.6743 16.692 81.4583 16.092 81.0263 15.66C80.6063 15.216 80.0843 14.994 79.4603 14.994C78.8483 14.994 78.3263 15.216 77.8943 15.66C77.4743 16.104 77.2643 16.71 77.2643 17.478C77.2643 18.246 77.4743 18.852 77.8943 19.296C78.3263 19.74 78.8483 19.962 79.4603 19.962C80.0723 19.962 80.5943 19.74 81.0263 19.296C81.4583 18.84 81.6743 18.228 81.6743 17.46Z" fill="white"/>
<path d="M91.2991 9.18V22.5H88.2211V9.18H91.2991Z" fill="white"/>
<path d="M104.798 17.316C104.798 17.604 104.78 17.904 104.744 18.216H97.7777C97.8257 18.84 98.0237 19.32 98.3717 19.656C98.7317 19.98 99.1697 20.142 99.6857 20.142C100.454 20.142 100.988 19.818 101.288 19.17H104.564C104.396 19.83 104.09 20.424 103.646 20.952C103.214 21.48 102.668 21.894 102.008 22.194C101.348 22.494 100.61 22.644 99.7937 22.644C98.8097 22.644 97.9337 22.434 97.1657 22.014C96.3977 21.594 95.7977 20.994 95.3657 20.214C94.9337 19.434 94.7177 18.522 94.7177 17.478C94.7177 16.434 94.9277 15.522 95.3477 14.742C95.7797 13.962 96.3797 13.362 97.1477 12.942C97.9157 12.522 98.7977 12.312 99.7937 12.312C100.766 12.312 101.63 12.516 102.386 12.924C103.142 13.332 103.73 13.914 104.15 14.67C104.582 15.426 104.798 16.308 104.798 17.316ZM101.648 16.506C101.648 15.978 101.468 15.558 101.108 15.246C100.748 14.934 100.298 14.778 99.7577 14.778C99.2417 14.778 98.8037 14.928 98.4437 15.228C98.0957 15.528 97.8797 15.954 97.7957 16.506H101.648Z" fill="white"/>
<path d="M20.0659 15.0925C20.0531 12.7524 21.1116 10.9862 23.254 9.68544C22.0553 7.97024 20.2444 7.02657 17.8533 6.84166C15.5898 6.66312 13.1158 8.16153 12.2104 8.16153C11.254 8.16153 9.06057 6.90542 7.339 6.90542C3.78108 6.96281 0 9.74283 0 15.3985C0 17.0691 0.306057 18.7949 0.918172 20.576C1.73433 22.916 4.68013 28.6546 7.75345 28.559C9.36026 28.5207 10.4952 27.4176 12.5866 27.4176C14.6142 27.4176 15.6663 28.559 17.458 28.559C20.5569 28.5143 23.2221 23.2986 24 20.9522C19.8427 18.9947 20.0659 15.2136 20.0659 15.0925ZM16.457 4.62274C18.1977 2.55685 18.0383 0.675877 17.9872 0C16.4506 0.0892667 14.6716 1.0457 13.6578 2.22529C12.542 3.48778 11.8852 5.04995 12.0255 6.80978C13.6897 6.9373 15.2072 6.08289 16.457 4.62274Z" fill="white"/>
</svg>
